Coordinates
nRows=377
nColumns=2
inDegrees=yes
endheader
time	ankle_angle_r	
14.4042	  9.558312	
14.4375	  9.548877	
14.4708	  9.544499	
14.504	  9.546327	
14.5373	  9.547840	
14.5706	  9.545744	
14.6038	  9.544923	
14.6371	  9.546571	
14.6704	  9.546713	
14.7036	  9.543880	
14.7369	  9.538179	
14.7702	  9.529072	
14.8034	  9.516171	
14.8367	  9.499812	
14.87	  9.483252	
14.9032	  9.471891	
14.9365	  9.468708	
14.9698	  9.473244	
15.003	  9.483196	
15.0363	  9.495773	
15.0696	  9.506393	
15.1028	  9.504930	
15.1361	  9.484775	
15.1694	  9.457534	
15.2026	  9.442792	
15.2359	  9.445552	
15.2692	  9.452865	
15.3024	  9.449537	
15.3357	  9.436633	
15.369	  9.429375	
15.4022	  9.434880	
15.4355	  9.445380	
15.4687	  9.452280	
15.502	  9.453773	
15.5353	  9.454212	
15.5685	  9.458621	
15.6018	  9.462780	
15.6351	  9.458996	
15.6683	  9.449001	
15.7016	  9.440616	
15.7349	  9.440794	
15.7681	  9.450764	
15.8014	  9.461238	
15.8347	  9.461198	
15.8679	  9.448711	
15.9012	  9.428931	
15.9345	  9.411584	
15.9677	  9.404518	
16.001	  9.405372	
16.0343	  9.409906	
16.0675	  9.418168	
16.1008	  9.426560	
16.1341	  9.430168	
16.1673	  9.429692	
16.2006	  9.425977	
16.2339	  9.419698	
16.2671	  9.416466	
16.3004	  9.418415	
16.3337	  9.420811	
16.3669	  9.420954	
16.4002	  9.418282	
16.4335	  9.414904	
16.4667	  9.417254	
16.5	  9.425032	
16.5333	  9.430357	
16.5665	  9.432565	
16.5998	  9.438103	
16.6331	  9.448459	
16.6663	  9.456350	
16.6996	  9.451996	
16.7329	  9.437137	
16.7661	  9.425867	
16.7994	  9.424549	
16.8327	  9.427236	
16.8659	  9.429420	
16.8992	  9.428910	
16.9325	  9.423207	
16.9657	  9.415240	
16.999	  9.412589	
17.0323	  9.420103	
17.0655	  9.434452	
17.0988	  9.447537	
17.1321	  9.456333	
17.1653	  9.458579	
17.1986	  9.447466	
17.2319	  9.429380	
17.2651	  9.425953	
17.2984	  9.444033	
17.3317	  9.470487	
17.3649	  9.494765	
17.3982	  9.511769	
17.4315	  9.514265	
17.4647	  9.496672	
17.498	  9.464244	
17.5312	  9.437158	
17.5645	  9.434384	
17.5978	  9.451377	
17.631	  9.466461	
17.6643	  9.464533	
17.6976	  9.447947	
17.7308	  9.433051	
17.7641	  9.433176	
17.7974	  9.445902	
17.8306	  9.462195	
17.8639	  9.473233	
17.8972	  9.474925	
17.9304	  9.475505	
17.9637	  9.480396	
17.997	  9.481603	
18.0302	  9.476975	
18.0635	  9.475436	
18.0968	  9.481925	
18.13	  9.493988	
18.1633	  9.504861	
18.1966	  9.509819	
18.2298	  9.515084	
18.2631	  9.526465	
18.2964	  9.534744	
18.3296	  9.531200	
18.3629	  9.523380	
18.3962	  9.522752	
18.4294	  9.529565	
18.4627	  9.534803	
18.496	  9.533198	
18.5292	  9.529999	
18.5625	  9.529985	
18.5958	  9.529259	
18.629	  9.526225	
18.6623	  9.525492	
18.6956	  9.527414	
18.7288	  9.528374	
18.7621	  9.526982	
18.7954	  9.524525	
18.8286	  9.523523	
18.8619	  9.522502	
18.8952	  9.517592	
18.9284	  9.512132	
18.9617	  9.512360	
18.995	  9.516782	
19.0282	  9.518593	
19.0615	  9.514281	
19.0948	  9.507658	
19.128	  9.502911	
19.1613	  9.496126	
19.1946	  9.484217	
19.2278	  9.473156	
19.2611	  9.466483	
19.2944	  9.461240	
19.3276	  9.456306	
19.3609	  9.450050	
19.3942	  9.441654	
19.4274	  9.437793	
19.4607	  9.440676	
19.494	  9.442900	
19.5272	  9.442715	
19.5605	  9.442691	
19.5937	  9.442805	
19.627	  9.446810	
19.6603	  9.456764	
19.6935	  9.467240	
19.7268	  9.473727	
19.7601	  9.475974	
19.7933	  9.478434	
19.8266	  9.486145	
19.8599	  9.494240	
19.8931	  9.495064	
19.9264	  9.490711	
19.9597	  9.485033	
19.9929	  9.477702	
20.0262	  9.471559	
20.0595	  9.471045	
20.0927	  9.476361	
20.126	  9.484628	
20.1593	  9.490319	
20.1925	  9.490098	
20.2258	  9.487742	
20.2591	  9.487566	
20.2923	  9.491695	
20.3256	  9.501003	
20.3589	  9.510034	
20.3921	  9.512401	
20.4254	  9.510554	
20.4587	  9.509751	
20.4919	  9.510110	
20.5252	  9.508437	
20.5585	  9.503552	
20.5917	  9.500003	
20.625	  9.501816	
20.6583	  9.504565	
20.6915	  9.502398	
20.7248	  9.495521	
20.7581	  9.487561	
20.7913	  9.482875	
20.8246	  9.482195	
20.8579	  9.482563	
20.8911	  9.483240	
20.9244	  9.482282	
20.9577	  9.475265	
20.9909	  9.465913	
21.0242	  9.465120	
21.0575	  9.473731	
21.0907	  9.478554	
21.124	  9.469516	
21.1573	  9.454123	
21.1905	  9.450367	
21.2238	  9.462169	
21.2571	  9.475804	
21.2903	  9.485655	
21.3236	  9.496921	
21.3569	  9.507481	
21.3901	  9.513142	
21.4234	  9.515296	
21.4567	  9.511956	
21.4899	  9.500141	
21.5232	  9.484038	
21.5565	  9.471520	
21.5897	  9.469286	
21.623	  9.474322	
21.6562	  9.474480	
21.6895	  9.469491	
21.7228	  9.469443	
21.756	  9.472154	
21.7893	  9.469630	
21.8226	  9.463875	
21.8558	  9.459599	
21.8891	  9.458332	
21.9224	  9.461015	
21.9556	  9.465006	
21.9889	  9.466537	
22.0222	  9.466452	
22.0554	  9.467825	
22.0887	  9.474208	
22.122	  9.486400	
22.1552	  9.497597	
22.1885	  9.499497	
22.2218	  9.490432	
22.255	  9.475777	
22.2883	  9.463929	
22.3216	  9.457512	
22.3548	  9.452330	
22.3881	  9.447227	
22.4214	  9.445102	
22.4546	  9.446443	
22.4879	  9.447769	
22.5212	  9.445590	
22.5544	  9.442016	
22.5877	  9.439153	
22.621	  9.431103	
22.6542	  9.417962	
22.6875	  9.412572	
22.7208	  9.417785	
22.754	  9.422140	
22.7873	  9.420510	
22.8206	  9.418858	
22.8538	  9.426027	
22.8871	  9.441965	
22.9204	  9.454262	
22.9536	  9.459106	
22.9869	  9.465577	
23.0202	  9.469910	
23.0534	  9.459283	
23.0867	  9.438132	
23.12	  9.421385	
23.1532	  9.413427	
23.1865	  9.409777	
23.2198	  9.407080	
23.253	  9.407460	
23.2863	  9.418419	
23.3196	  9.440152	
23.3528	  9.458901	
23.3861	  9.464720	
23.4194	  9.461148	
23.4526	  9.457148	
23.4859	  9.461333	
23.5192	  9.473606	
23.5524	  9.484210	
23.5857	  9.488957	
23.619	  9.492637	
23.6522	  9.497965	
23.6855	  9.502344	
23.7187	  9.502851	
23.752	  9.502097	
23.7853	  9.504788	
23.8185	  9.508150	
23.8518	  9.506396	
23.8851	  9.499815	
23.9183	  9.493623	
23.9516	  9.493892	
23.9849	  9.500558	
24.0181	  9.507711	
24.0514	  9.515331	
24.0847	  9.525637	
24.1179	  9.533289	
24.1512	  9.534385	
24.1845	  9.531967	
24.2177	  9.529182	
24.251	  9.527222	
24.2843	  9.525513	
24.3175	  9.522671	
24.3508	  9.516959	
24.3841	  9.503434	
24.4173	  9.483345	
24.4506	  9.472641	
24.4839	  9.480023	
24.5171	  9.491499	
24.5504	  9.494180	
24.5837	  9.493285	
24.6169	  9.497160	
24.6502	  9.502963	
24.6835	  9.502029	
24.7167	  9.494654	
24.75	  9.490778	
24.7833	  9.491303	
24.8165	  9.486035	
24.8498	  9.475128	
24.8831	  9.469221	
24.9163	  9.469490	
24.9496	  9.468166	
24.9829	  9.462179	
25.0161	  9.456084	
25.0494	  9.457021	
25.0827	  9.464612	
25.1159	  9.469185	
25.1492	  9.468445	
25.1825	  9.470983	
25.2157	  9.478495	
25.249	  9.485314	
25.2823	  9.490671	
25.3155	  9.494886	
25.3488	  9.495326	
25.3821	  9.491489	
25.4153	  9.483797	
25.4486	  9.469501	
25.4819	  9.447974	
25.5151	  9.429557	
25.5484	  9.426955	
25.5817	  9.436231	
25.6149	  9.443569	
25.6482	  9.447229	
25.6815	  9.455248	
25.7147	  9.470563	
25.748	  9.486823	
25.7812	  9.494206	
25.8145	  9.492636	
25.8478	  9.492549	
25.881	  9.497010	
25.9143	  9.498789	
25.9476	  9.495254	
25.9808	  9.490731	
26.0141	  9.489245	
26.0474	  9.490717	
26.0806	  9.490502	
26.1139	  9.487272	
26.1472	  9.486559	
26.1804	  9.489456	
26.2137	  9.491511	
26.247	  9.492887	
26.2802	  9.493945	
26.3135	  9.491281	
26.3468	  9.486394	
26.38	  9.484086	
26.4133	  9.485260	
26.4466	  9.487908	
26.4798	  9.489021	
26.5131	  9.489001	
26.5464	  9.491553	
26.5796	  9.493029	
26.6129	  9.485129	
26.6462	  9.470684	
26.6794	  9.461431	
26.7127	  9.460850	
26.746	  9.460102	
26.7792	  9.451681	
26.8125	  9.442731	
26.8458	  9.445248	
26.879	  9.454801	
26.9123	  9.460423	
